{"glyphs":{"0":{"ha":521,"x_min":0,"x_max":434,"o":"m 87 0 l 87 87 l 347 87 l 347 0 l 87 0 m 0 87 l 0 521 l 87 521 l 87 87 l 0 87 m 347 87 l 347 521 l 434 521 l 434 87 l 347 87 m 87 521 l 87 608 l 347 608 l 347 521 l 87 521 z "},"1":{"ha":347,"x_min":0,"x_max":260,"o":"m 0 0 l 0 87 l 87 87 l 87 521 l 0 521 l 0 608 l 174 608 l 174 87 l 260 87 l 260 0 l 0 0 z "},"2":{"ha":521,"x_min":0,"x_max":434,"o":"m 0 0 l 0 260 l 87 260 l 87 87 l 434 87 l 434 0 l 0 0 m 87 260 l 87 347 l 347 347 l 347 260 l 87 260 m 347 347 l 347 521 l 434 521 l 434 347 l 347 347 m 0 521 l 0 608 l 347 608 l 347 521 l 0 521 z "},"3":{"ha":521,"x_min":0,"x_max":434,"o":"m 0 0 l 0 87 l 347 87 l 347 0 l 0 0 m 347 87 l 347 260 l 0 260 l 0 347 l 347 347 l 347 521 l 434 521 l 434 87 l 347 87 m 0 521 l 0 608 l 347 608 l 347 521 l 0 521 z "},"4":{"ha":521,"x_min":0,"x_max":434,"o":"m 347 0 l 347 260 l 0 260 l 0 608 l 87 608 l 87 347 l 347 347 l 347 608 l 434 608 l 434 0 l 347 0 z "},"5":{"ha":521,"x_min":0,"x_max":434,"o":"m 87 0 l 87 87 l 347 87 l 347 0 l 87 0 m 0 87 l 0 174 l 87 174 l 87 87 l 0 87 m 347 87 l 347 260 l 434 260 l 434 87 l 347 87 m 87 260 l 87 347 l 347 347 l 347 260 l 87 260 m 0 347 l 0 608 l 434 608 l 434 521 l 87 521 l 87 347 l 0 347 z "},"6":{"ha":521,"x_min":0,"x_max":434,"o":"m 87 0 l 87 87 l 347 87 l 347 0 l 87 0 m 347 87 l 347 260 l 434 260 l 434 87 l 347 87 m 0 87 l 0 521 l 87 521 l 87 347 l 347 347 l 347 260 l 87 260 l 87 87 l 0 87 m 347 434 l 347 521 l 434 521 l 434 434 l 347 434 m 87 521 l 87 608 l 347 608 l 347 521 l 87 521 z "},"7":{"ha":521,"x_min":0,"x_max":434,"o":"m 174 0 l 174 260 l 260 260 l 260 0 l 174 0 m 260 260 l 260 347 l 347 347 l 347 260 l 260 260 m 347 347 l 347 521 l 0 521 l 0 608 l 434 608 l 434 347 l 347 347 z "},"8":{"ha":521,"x_min":0,"x_max":434,"o":"m 87 0 l 87 87 l 347 87 l 347 0 l 87 0 m 0 87 l 0 260 l 87 260 l 87 87 l 0 87 m 347 87 l 347 260 l 434 260 l 434 87 l 347 87 m 87 260 l 87 347 l 347 347 l 347 260 l 87 260 m 0 347 l 0 521 l 87 521 l 87 347 l 0 347 m 347 347 l 347 521 l 434 521 l 434 347 l 347 347 m 87 521 l 87 608 l 347 608 l 347 521 l 87 521 z "},"9":{"ha":521,"x_min":0,"x_max":434,"o":"m 87 0 l 87 87 l 347 87 l 347 0 l 87 0 m 0 87 l 0 174 l 87 174 l 87 87 l 0 87 m 0 347 l 0 521 l 87 521 l 87 347 l 0 347 m 347 87 l 347 260 l 87 260 l 87 347 l 347 347 l 347 521 l 434 521 l 434 87 l 347 87 m 87 521 l 87 608 l 347 608 l 347 521 l 87 521 z "}," ":{"ha":174,"x_min":0,"x_max":0,"o":""},"!":{"ha":174,"x_min":0,"x_max":87,"o":"m 0 0 l 0 87 l 87 87 l 87 0 l 0 0 m 0 174 l 0 608 l 87 608 l 87 174 l 0 174 z "},"\"":{"ha":347,"x_min":0,"x_max":260,"o":"m 0 434 l 0 608 l 87 608 l 87 434 l 0 434 m 174 434 l 174 608 l 260 608 l 260 434 l 174 434 z "},"#":{"ha":521,"x_min":0,"x_max":434,"o":"m 260 260 l 260 347 l 174 347 l 174 260 l 260 260 m 87 0 l 87 174 l 0 174 l 0 260 l 87 260 l 87 347 l 0 347 l 0 434 l 87 434 l 87 608 l 174 608 l 174 434 l 260 434 l 260 608 l 347 608 l 347 434 l 434 434 l 434 347 l 347 347 l 347 260 l 434 260 l 434 174 l 347 174 l 347 0 l 260 0 l 260 174 l 174 174 l 174 0 l 87 0 z "},"$":{"ha":521,"x_min":0,"x_max":434,"o":"m 347 87 l 347 260 l 434 260 l 434 87 l 347 87 m 0 347 l 0 521 l 87 521 l 87 347 l 0 347 m 174 -87 l 174 0 l 0 0 l 0 87 l 174 87 l 174 260 l 87 260 l 87 347 l 174 347 l 174 521 l 87 521 l 87 608 l 174 608 l 174 694 l 260 694 l 260 608 l 434 608 l 434 521 l 260 521 l 260 347 l 347 347 l 347 260 l 260 260 l 260 87 l 347 87 l 347 0 l 260 0 l 260 -87 l 174 -87 z "},"%":{"ha":521,"x_min":0,"x_max":434,"o":"m 0 0 l 0 174 l 87 174 l 87 0 l 0 0 m 260 0 l 260 174 l 434 174 l 434 0 l 260 0 m 87 174 l 87 260 l 174 260 l 174 174 l 87 174 m 174 260 l 174 347 l 260 347 l 260 260 l 174 260 m 260 347 l 260 434 l 347 434 l 347 347 l 260 347 m 0 434 l 0 608 l 174 608 l 174 434 l 0 434 m 347 434 l 347 608 l 434 608 l 434 434 l 347 434 z "},"&":{"ha":608,"x_min":0,"x_max":521,"o":"m 87 0 l 87 87 l 347 87 l 347 0 l 87 0 m 434 0 l 434 87 l 521 87 l 521 0 l 434 0 m 347 87 l 347 174 l 434 174 l 434 87 l 347 87 m 0 87 l 0 260 l 87 260 l 87 87 l 0 87 m 434 174 l 434 260 l 521 260 l 521 174 l 434 174 m 260 174 l 260 260 l 87 260 l 87 521 l 174 521 l 174 347 l 347 347 l 347 174 l 260 174 m 347 347 l 347 521 l 434 521 l 434 347 l 347 347 m 174 521 l 174 608 l 347 608 l 347 521 l 174 521 z "},"'":{"ha":174,"x_min":0,"x_max":87,"o":"m 0 434 l 0 608 l 87 608 l 87 434 l 0 434 z "},"(":{"ha":260,"x_min":0,"x_max":174,"o":"m 87 0 l 87 87 l 174 87 l 174 0 l 87 0 m 0 87 l 0 521 l 87 521 l 87 87 l 0 87 m 87 521 l 87 608 l 174 608 l 174 521 l 87 521 z "},")":{"ha":260,"x_min":0,"x_max":174,"o":"m 0 0 l 0 87 l 87 87 l 87 0 l 0 0 m 87 87 l 87 521 l 174 521 l 174 87 l 87 87 m 0 521 l 0 608 l 87 608 l 87 521 l 0 521 z "},"*":{"ha":434,"x_min":87,"x_max":347,"o":"m 87 174 l 87 260 l 174 260 l 174 174 l 87 174 m 260 174 l 260 260 l 347 260 l 347 174 l 260 174 m 174 260 l 174 347 l 260 347 l 260 260 l 174 260 m 87 347 l 87 434 l 174 434 l 174 347 l 87 347 m 260 347 l 260 434 l 347 434 l 347 347 l 260 347 z "},"+":{"ha":521,"x_min":0,"x_max":434,"o":"m 174 87 l 174 260 l 0 260 l 0 347 l 174 347 l 174 521 l 260 521 l 260 347 l 434 347 l 434 260 l 260 260 l 260 87 l 174 87 z "},",":{"ha":174,"x_min":0,"x_max":87,"o":"m 0 -87 l 0 87 l 87 87 l 87 -87 l 0 -87 z "},"-":{"ha":521,"x_min":0,"x_max":434,"o":"m 0 260 l 0 347 l 434 347 l 434 260 l 0 260 z "},".":{"ha":174,"x_min":0,"x_max":87,"o":"m 0 0 l 0 87 l 87 87 l 87 0 l 0 0 z "},"/":{"ha":521,"x_min":0,"x_max":434,"o":"m 0 0 l 0 174 l 87 174 l 87 0 l 0 0 m 87 174 l 87 260 l 174 260 l 174 174 l 87 174 m 174 260 l 174 347 l 260 347 l 260 260 l 174 260 m 260 347 l 260 434 l 347 434 l 347 347 l 260 347 m 347 434 l 347 608 l 434 608 l 434 434 l 347 434 z "},":":{"ha":174,"x_min":0,"x_max":87,"o":"m 0 0 l 0 87 l 87 87 l 87 0 l 0 0 m 0 347 l 0 434 l 87 434 l 87 347 l 0 347 z "},";":{"ha":174,"x_min":0,"x_max":87,"o":"m 0 -87 l 0 87 l 87 87 l 87 -87 l 0 -87 m 0 347 l 0 434 l 87 434 l 87 347 l 0 347 z "},"<":{"ha":434,"x_min":0,"x_max":347,"o":"m 260 0 l 260 87 l 347 87 l 347 0 l 260 0 m 174 87 l 174 174 l 260 174 l 260 87 l 174 87 m 87 174 l 87 260 l 174 260 l 174 174 l 87 174 m 0 260 l 0 347 l 87 347 l 87 260 l 0 260 m 87 347 l 87 434 l 174 434 l 174 347 l 87 347 m 174 434 l 174 521 l 260 521 l 260 434 l 174 434 m 260 521 l 260 608 l 347 608 l 347 521 l 260 521 z "},"=":{"ha":521,"x_min":0,"x_max":434,"o":"m 0 174 l 0 260 l 434 260 l 434 174 l 0 174 m 0 347 l 0 434 l 434 434 l 434 347 l 0 347 z "},">":{"ha":434,"x_min":0,"x_max":347,"o":"m 0 0 l 0 87 l 87 87 l 87 0 l 0 0 m 87 87 l 87 174 l 174 174 l 174 87 l 87 87 m 174 174 l 174 260 l 260 260 l 260 174 l 174 174 m 260 260 l 260 347 l 347 347 l 347 260 l 260 260 m 174 347 l 174 434 l 260 434 l 260 347 l 174 347 m 87 434 l 87 521 l 174 521 l 174 434 l 87 434 m 0 521 l 0 608 l 87 608 l 87 521 l 0 521 z "},"?":{"ha":521,"x_min":0,"x_max":434,"o":"m 174 0 l 174 87 l 260 87 l 260 0 l 174 0 m 174 174 l 174 260 l 260 260 l 260 174 l 174 174 m 260 260 l 260 347 l 347 347 l 347 260 l 260 260 m 0 434 l 0 521 l 87 521 l 87 434 l 0 434 m 347 347 l 347 521 l 434 521 l 434 347 l 347 347 m 87 521 l 87 608 l 347 608 l 347 521 l 87 521 z "},"@":{"ha":521,"x_min":0,"x_max":434,"o":"m 87 0 l 87 87 l 434 87 l 434 0 l 87 0 m 347 260 l 347 347 l 260 347 l 260 260 l 347 260 m 0 87 l 0 521 l 87 521 l 87 87 l 0 87 m 174 174 l 174 434 l 347 434 l 347 521 l 434 521 l 434 174 l 174 174 m 87 521 l 87 608 l 347 608 l 347 521 l 87 521 z "},"A":{"ha":521,"x_min":0,"x_max":434,"o":"m 0 0 l 0 521 l 87 521 l 87 347 l 347 347 l 347 521 l 434 521 l 434 0 l 347 0 l 347 260 l 87 260 l 87 0 l 0 0 m 87 521 l 87 608 l 347 608 l 347 521 l 87 521 z "},"B":{"ha":521,"x_min":0,"x_max":434,"o":"m 347 87 l 347 260 l 434 260 l 434 87 l 347 87 m 347 347 l 347 521 l 434 521 l 434 347 l 347 347 m 0 0 l 0 608 l 347 608 l 347 521 l 87 521 l 87 347 l 347 347 l 347 260 l 87 260 l 87 87 l 347 87 l 347 0 l 0 0 z "},"C":{"ha":521,"x_min":0,"x_max":434,"o":"m 87 0 l 87 87 l 347 87 l 347 0 l 87 0 m 347 87 l 347 174 l 434 174 l 434 87 l 347 87 m 0 87 l 0 521 l 87 521 l 87 87 l 0 87 m 347 434 l 347 521 l 434 521 l 434 434 l 347 434 m 87 521 l 87 608 l 347 608 l 347 521 l 87 521 z "},"D":{"ha":521,"x_min":0,"x_max":434,"o":"m 347 87 l 347 521 l 434 521 l 434 87 l 347 87 m 0 0 l 0 608 l 347 608 l 347 521 l 87 521 l 87 87 l 347 87 l 347 0 l 0 0 z "},"E":{"ha":521,"x_min":0,"x_max":434,"o":"m 87 0 l 87 87 l 434 87 l 434 0 l 87 0 m 0 87 l 0 521 l 87 521 l 87 347 l 434 347 l 434 260 l 87 260 l 87 87 l 0 87 m 87 521 l 87 608 l 434 608 l 434 521 l 87 521 z "},"F":{"ha":521,"x_min":0,"x_max":434,"o":"m 0 0 l 0 521 l 87 521 l 87 347 l 434 347 l 434 260 l 87 260 l 87 0 l 0 0 m 87 521 l 87 608 l 434 608 l 434 521 l 87 521 z "},"G":{"ha":521,"x_min":0,"x_max":434,"o":"m 87 0 l 87 87 l 347 87 l 347 0 l 87 0 m 347 87 l 347 260 l 174 260 l 174 347 l 434 347 l 434 87 l 347 87 m 0 87 l 0 521 l 87 521 l 87 87 l 0 87 m 347 434 l 347 521 l 434 521 l 434 434 l 347 434 m 87 521 l 87 608 l 347 608 l 347 521 l 87 521 z "},"H":{"ha":521,"x_min":0,"x_max":434,"o":"m 0 0 l 0 608 l 87 608 l 87 347 l 347 347 l 347 608 l 434 608 l 434 0 l 347 0 l 347 260 l 87 260 l 87 0 l 0 0 z "},"I":{"ha":347,"x_min":0,"x_max":260,"o":"m 0 0 l 0 87 l 87 87 l 87 521 l 0 521 l 0 608 l 260 608 l 260 521 l 174 521 l 174 87 l 260 87 l 260 0 l 0 0 z "},"J":{"ha":347,"x_min":0,"x_max":260,"o":"m 0 0 l 0 87 l 174 87 l 174 0 l 0 0 m 174 87 l 174 521 l 0 521 l 0 608 l 260 608 l 260 87 l 174 87 z "},"K":{"ha":521,"x_min":0,"x_max":434,"o":"m 347 0 l 347 260 l 434 260 l 434 0 l 347 0 m 0 0 l 0 608 l 87 608 l 87 347 l 347 347 l 347 260 l 87 260 l 87 0 l 0 0 m 347 347 l 347 608 l 434 608 l 434 347 l 347 347 z "},"L":{"ha":434,"x_min":0,"x_max":347,"o":"m 87 0 l 87 87 l 347 87 l 347 0 l 87 0 m 0 87 l 0 608 l 87 608 l 87 87 l 0 87 z "},"M":{"ha":694,"x_min":0,"x_max":608,"o":"m 260 0 l 260 521 l 347 521 l 347 0 l 260 0 m 521 0 l 521 521 l 608 521 l 608 0 l 521 0 m 0 0 l 0 608 l 260 608 l 260 521 l 87 521 l 87 0 l 0 0 m 347 521 l 347 608 l 521 608 l 521 521 l 347 521 z "},"N":{"ha":521,"x_min":0,"x_max":434,"o":"m 347 0 l 347 521 l 434 521 l 434 0 l 347 0 m 0 0 l 0 608 l 347 608 l 347 521 l 87 521 l 87 0 l 0 0 z "},"O":{"ha":521,"x_min":0,"x_max":434,"o":"m 87 0 l 87 87 l 347 87 l 347 0 l 87 0 m 0 87 l 0 521 l 87 521 l 87 87 l 0 87 m 347 87 l 347 521 l 434 521 l 434 87 l 347 87 m 87 521 l 87 608 l 347 608 l 347 521 l 87 521 z "},"P":{"ha":521,"x_min":0,"x_max":434,"o":"m 347 347 l 347 521 l 434 521 l 434 347 l 347 347 m 0 0 l 0 608 l 347 608 l 347 521 l 87 521 l 87 347 l 347 347 l 347 260 l 87 260 l 87 0 l 0 0 z "},"Q":{"ha":521,"x_min":0,"x_max":434,"o":"m 174 -87 l 174 0 l 87 0 l 87 87 l 174 87 l 174 174 l 260 174 l 260 87 l 347 87 l 347 0 l 260 0 l 260 -87 l 174 -87 m 0 87 l 0 521 l 87 521 l 87 87 l 0 87 m 347 87 l 347 521 l 434 521 l 434 87 l 347 87 m 87 521 l 87 608 l 347 608 l 347 521 l 87 521 z "},"R":{"ha":521,"x_min":0,"x_max":434,"o":"m 347 0 l 347 260 l 434 260 l 434 0 l 347 0 m 347 347 l 347 521 l 434 521 l 434 347 l 347 347 m 0 0 l 0 608 l 347 608 l 347 521 l 87 521 l 87 347 l 347 347 l 347 260 l 87 260 l 87 0 l 0 0 z "},"S":{"ha":521,"x_min":0,"x_max":434,"o":"m 0 0 l 0 87 l 347 87 l 347 0 l 0 0 m 347 87 l 347 260 l 434 260 l 434 87 l 347 87 m 87 260 l 87 347 l 347 347 l 347 260 l 87 260 m 0 347 l 0 521 l 87 521 l 87 347 l 0 347 m 87 521 l 87 608 l 434 608 l 434 521 l 87 521 z "},"T":{"ha":521,"x_min":0,"x_max":434,"o":"m 174 0 l 174 521 l 0 521 l 0 608 l 434 608 l 434 521 l 260 521 l 260 0 l 174 0 z "},"U":{"ha":521,"x_min":0,"x_max":434,"o":"m 87 0 l 87 87 l 347 87 l 347 0 l 87 0 m 0 87 l 0 608 l 87 608 l 87 87 l 0 87 m 347 87 l 347 608 l 434 608 l 434 87 l 347 87 z "},"V":{"ha":521,"x_min":0,"x_max":434,"o":"m 174 0 l 174 87 l 260 87 l 260 0 l 174 0 m 87 87 l 87 174 l 174 174 l 174 87 l 87 87 m 260 87 l 260 174 l 347 174 l 347 87 l 260 87 m 0 174 l 0 608 l 87 608 l 87 174 l 0 174 m 347 174 l 347 608 l 434 608 l 434 174 l 347 174 z "},"W":{"ha":694,"x_min":0,"x_max":608,"o":"m 347 0 l 347 87 l 521 87 l 521 0 l 347 0 m 0 0 l 0 608 l 87 608 l 87 87 l 260 87 l 260 0 l 0 0 m 260 87 l 260 608 l 347 608 l 347 87 l 260 87 m 521 87 l 521 608 l 608 608 l 608 87 l 521 87 z "},"X":{"ha":521,"x_min":0,"x_max":434,"o":"m 0 0 l 0 260 l 87 260 l 87 0 l 0 0 m 347 0 l 347 260 l 434 260 l 434 0 l 347 0 m 87 260 l 87 347 l 347 347 l 347 260 l 87 260 m 0 347 l 0 608 l 87 608 l 87 347 l 0 347 m 347 347 l 347 608 l 434 608 l 434 347 l 347 347 z "},"Y":{"ha":521,"x_min":0,"x_max":434,"o":"m 174 0 l 174 260 l 87 260 l 87 347 l 347 347 l 347 260 l 260 260 l 260 0 l 174 0 m 0 347 l 0 608 l 87 608 l 87 347 l 0 347 m 347 347 l 347 608 l 434 608 l 434 347 l 347 347 z "},"Z":{"ha":521,"x_min":0,"x_max":434,"o":"m 0 0 l 0 174 l 87 174 l 87 87 l 434 87 l 434 0 l 0 0 m 87 174 l 87 260 l 174 260 l 174 174 l 87 174 m 174 260 l 174 347 l 260 347 l 260 260 l 174 260 m 260 347 l 260 434 l 347 434 l 347 347 l 260 347 m 347 434 l 347 521 l 0 521 l 0 608 l 434 608 l 434 434 l 347 434 z "},"[":{"ha":260,"x_min":0,"x_max":174,"o":"m 0 0 l 0 608 l 174 608 l 174 521 l 87 521 l 87 87 l 174 87 l 174 0 l 0 0 z "},"\\":{"ha":521,"x_min":0,"x_max":434,"o":"m 347 0 l 347 174 l 434 174 l 434 0 l 347 0 m 260 174 l 260 260 l 347 260 l 347 174 l 260 174 m 174 260 l 174 347 l 260 347 l 260 260 l 174 260 m 87 347 l 87 434 l 174 434 l 174 347 l 87 347 m 0 434 l 0 608 l 87 608 l 87 434 l 0 434 z "},"]":{"ha":260,"x_min":0,"x_max":174,"o":"m 0 0 l 0 87 l 87 87 l 87 521 l 0 521 l 0 608 l 174 608 l 174 0 l 0 0 z "},"^":{"ha":521,"x_min":0,"x_max":434,"o":"m 0 347 l 0 434 l 87 434 l 87 347 l 0 347 m 347 347 l 347 434 l 434 434 l 434 347 l 347 347 m 87 434 l 87 521 l 174 521 l 174 434 l 87 434 m 260 434 l 260 521 l 347 521 l 347 434 l 260 434 m 174 521 l 174 608 l 260 608 l 260 521 l 174 521 z "},"_":{"ha":521,"x_min":0,"x_max":434,"o":"m 0 0 l 0 87 l 434 87 l 434 0 l 0 0 z "},"`":{"ha":521,"x_min":347,"x_max":434,"o":"m 347 434 l 347 608 l 434 608 l 434 434 l 347 434 z "},"a":{"ha":521,"x_min":0,"x_max":434,"o":"m 0 87 l 0 260 l 87 260 l 87 87 l 0 87 m 0 347 l 0 434 l 87 434 l 87 347 l 0 347 m 87 0 l 87 87 l 347 87 l 347 260 l 87 260 l 87 347 l 347 347 l 347 434 l 434 434 l 434 0 l 87 0 m 87 434 l 87 521 l 347 521 l 347 434 l 87 434 z "},"b":{"ha":521,"x_min":0,"x_max":434,"o":"m 347 87 l 347 434 l 434 434 l 434 87 l 347 87 m 0 0 l 0 694 l 87 694 l 87 521 l 347 521 l 347 434 l 87 434 l 87 87 l 347 87 l 347 0 l 0 0 z "},"c":{"ha":521,"x_min":0,"x_max":434,"o":"m 87 0 l 87 87 l 347 87 l 347 0 l 87 0 m 347 87 l 347 174 l 434 174 l 434 87 l 347 87 m 0 87 l 0 434 l 87 434 l 87 87 l 0 87 m 347 347 l 347 434 l 434 434 l 434 347 l 347 347 m 87 434 l 87 521 l 347 521 l 347 434 l 87 434 z "},"d":{"ha":521,"x_min":0,"x_max":434,"o":"m 0 87 l 0 434 l 87 434 l 87 87 l 0 87 m 87 0 l 87 87 l 347 87 l 347 434 l 87 434 l 87 521 l 347 521 l 347 694 l 434 694 l 434 0 l 87 0 z "},"e":{"ha":521,"x_min":0,"x_max":434,"o":"m 87 0 l 87 87 l 347 87 l 347 0 l 87 0 m 347 87 l 347 174 l 434 174 l 434 87 l 347 87 m 0 87 l 0 434 l 87 434 l 87 347 l 347 347 l 347 434 l 434 434 l 434 260 l 87 260 l 87 87 l 0 87 m 87 434 l 87 521 l 347 521 l 347 434 l 87 434 z "},"f":{"ha":521,"x_min":0,"x_max":434,"o":"m 87 0 l 87 347 l 0 347 l 0 434 l 87 434 l 87 521 l 174 521 l 174 434 l 347 434 l 347 347 l 174 347 l 174 0 l 87 0 m 174 521 l 174 608 l 434 608 l 434 521 l 174 521 z "},"g":{"ha":521,"x_min":0,"x_max":434,"o":"m 87 -87 l 87 0 l 347 0 l 347 -87 l 87 -87 m 0 0 l 0 87 l 87 87 l 87 0 l 0 0 m 0 260 l 0 434 l 87 434 l 87 260 l 0 260 m 347 0 l 347 174 l 87 174 l 87 260 l 347 260 l 347 434 l 87 434 l 87 521 l 434 521 l 434 0 l 347 0 z "},"h":{"ha":521,"x_min":0,"x_max":434,"o":"m 347 0 l 347 434 l 434 434 l 434 0 l 347 0 m 0 0 l 0 694 l 87 694 l 87 521 l 347 521 l 347 434 l 87 434 l 87 0 l 0 0 z "},"i":{"ha":174,"x_min":0,"x_max":87,"o":"m 0 0 l 0 521 l 87 521 l 87 0 l 0 0 z "},"j":{"ha":347,"x_min":0,"x_max":260,"o":"m 0 -87 l 0 0 l 174 0 l 174 -87 l 0 -87 m 174 0 l 174 434 l 0 434 l 0 521 l 260 521 l 260 0 l 174 0 z "},"k":{"ha":521,"x_min":0,"x_max":434,"o":"m 347 0 l 347 260 l 434 260 l 434 0 l 347 0 m 0 0 l 0 521 l 87 521 l 87 347 l 347 347 l 347 260 l 87 260 l 87 0 l 0 0 m 347 347 l 347 521 l 434 521 l 434 347 l 347 347 z "},"l":{"ha":434,"x_min":0,"x_max":347,"o":"m 87 0 l 87 87 l 347 87 l 347 0 l 87 0 m 0 87 l 0 521 l 87 521 l 87 87 l 0 87 z "},"m":{"ha":694,"x_min":0,"x_max":608,"o":"m 260 0 l 260 434 l 347 434 l 347 0 l 260 0 m 521 0 l 521 434 l 608 434 l 608 0 l 521 0 m 0 0 l 0 521 l 260 521 l 260 434 l 87 434 l 87 0 l 0 0 m 347 434 l 347 521 l 521 521 l 521 434 l 347 434 z "},"n":{"ha":521,"x_min":0,"x_max":434,"o":"m 347 0 l 347 434 l 434 434 l 434 0 l 347 0 m 0 0 l 0 521 l 347 521 l 347 434 l 87 434 l 87 0 l 0 0 z "},"o":{"ha":521,"x_min":0,"x_max":434,"o":"m 87 0 l 87 87 l 347 87 l 347 0 l 87 0 m 0 87 l 0 434 l 87 434 l 87 87 l 0 87 m 347 87 l 347 434 l 434 434 l 434 87 l 347 87 m 87 434 l 87 521 l 347 521 l 347 434 l 87 434 z "},"p":{"ha":521,"x_min":0,"x_max":434,"o":"m 347 260 l 347 434 l 434 434 l 434 260 l 347 260 m 0 0 l 0 521 l 347 521 l 347 434 l 87 434 l 87 260 l 347 260 l 347 174 l 87 174 l 87 0 l 0 0 z "},"q":{"ha":521,"x_min":0,"x_max":434,"o":"m 347 -87 l 347 174 l 0 174 l 0 434 l 87 434 l 87 260 l 347 260 l 347 434 l 87 434 l 87 521 l 434 521 l 434 -87 l 347 -87 z "},"r":{"ha":521,"x_min":0,"x_max":434,"o":"m 0 0 l 0 434 l 87 434 l 87 0 l 0 0 m 347 347 l 347 434 l 434 434 l 434 347 l 347 347 m 87 434 l 87 521 l 347 521 l 347 434 l 87 434 z "},"s":{"ha":521,"x_min":0,"x_max":434,"o":"m 0 0 l 0 87 l 347 87 l 347 0 l 0 0 m 347 87 l 347 260 l 434 260 l 434 87 l 347 87 m 87 260 l 87 347 l 347 347 l 347 260 l 87 260 m 0 347 l 0 434 l 87 434 l 87 347 l 0 347 m 87 434 l 87 521 l 434 521 l 434 434 l 87 434 z "},"t":{"ha":434,"x_min":0,"x_max":347,"o":"m 174 0 l 174 87 l 347 87 l 347 0 l 174 0 m 87 87 l 87 434 l 0 434 l 0 521 l 87 521 l 87 608 l 174 608 l 174 521 l 347 521 l 347 434 l 174 434 l 174 87 l 87 87 z "},"u":{"ha":521,"x_min":0,"x_max":434,"o":"m 0 87 l 0 521 l 87 521 l 87 87 l 0 87 m 87 0 l 87 87 l 347 87 l 347 521 l 434 521 l 434 0 l 87 0 z "},"v":{"ha":521,"x_min":0,"x_max":434,"o":"m 174 0 l 174 87 l 260 87 l 260 0 l 174 0 m 87 87 l 87 174 l 174 174 l 174 87 l 87 87 m 260 87 l 260 174 l 347 174 l 347 87 l 260 87 m 0 174 l 0 521 l 87 521 l 87 174 l 0 174 m 347 174 l 347 521 l 434 521 l 434 174 l 347 174 z "},"w":{"ha":694,"x_min":0,"x_max":608,"o":"m 347 0 l 347 87 l 521 87 l 521 0 l 347 0 m 0 0 l 0 521 l 87 521 l 87 87 l 260 87 l 260 0 l 0 0 m 260 87 l 260 521 l 347 521 l 347 87 l 260 87 m 521 87 l 521 521 l 608 521 l 608 87 l 521 87 z "},"x":{"ha":521,"x_min":0,"x_max":434,"o":"m 0 0 l 0 260 l 87 260 l 87 0 l 0 0 m 347 0 l 347 260 l 434 260 l 434 0 l 347 0 m 87 260 l 87 347 l 347 347 l 347 260 l 87 260 m 0 347 l 0 521 l 87 521 l 87 347 l 0 347 m 347 347 l 347 521 l 434 521 l 434 347 l 347 347 z "},"y":{"ha":521,"x_min":0,"x_max":434,"o":"m 87 -87 l 87 0 l 347 0 l 347 -87 l 87 -87 m 0 260 l 0 521 l 87 521 l 87 260 l 0 260 m 347 0 l 347 174 l 87 174 l 87 260 l 347 260 l 347 521 l 434 521 l 434 0 l 347 0 z "},"z":{"ha":521,"x_min":0,"x_max":434,"o":"m 0 0 l 0 174 l 87 174 l 87 87 l 434 87 l 434 0 l 0 0 m 87 174 l 87 260 l 174 260 l 174 174 l 87 174 m 174 260 l 174 347 l 260 347 l 260 260 l 174 260 m 260 347 l 260 434 l 0 434 l 0 521 l 434 521 l 434 434 l 347 434 l 347 347 l 260 347 z "},"{":{"ha":347,"x_min":0,"x_max":260,"o":"m 174 0 l 174 87 l 260 87 l 260 0 l 174 0 m 87 87 l 87 260 l 174 260 l 174 87 l 87 87 m 0 260 l 0 347 l 87 347 l 87 260 l 0 260 m 87 347 l 87 521 l 174 521 l 174 347 l 87 347 m 174 521 l 174 608 l 260 608 l 260 521 l 174 521 z "},"|":{"ha":174,"x_min":0,"x_max":87,"o":"m 0 0 l 0 608 l 87 608 l 87 0 l 0 0 z "},"}":{"ha":347,"x_min":0,"x_max":260,"o":"m 0 0 l 0 87 l 87 87 l 87 0 l 0 0 m 87 87 l 87 260 l 174 260 l 174 87 l 87 87 m 174 260 l 174 347 l 260 347 l 260 260 l 174 260 m 87 347 l 87 521 l 174 521 l 174 347 l 87 347 m 0 521 l 0 608 l 87 608 l 87 521 l 0 521 z "},"~":{"ha":608,"x_min":0,"x_max":521,"o":"m 0 260 l 0 347 l 87 347 l 87 260 l 0 260 m 260 260 l 260 347 l 434 347 l 434 260 l 260 260 m 87 347 l 87 434 l 260 434 l 260 347 l 87 347 m 434 347 l 434 434 l 521 434 l 521 347 l 434 347 z "},"¡":{"ha":174,"x_min":0,"x_max":87,"o":"m 0 0 l 0 434 l 87 434 l 87 0 l 0 0 m 0 521 l 0 608 l 87 608 l 87 521 l 0 521 z "},"¢":{"ha":521,"x_min":0,"x_max":434,"o":"m 347 174 l 347 260 l 434 260 l 434 174 l 347 174 m 0 174 l 0 434 l 87 434 l 87 174 l 0 174 m 347 347 l 347 434 l 434 434 l 434 347 l 347 347 m 174 0 l 174 87 l 87 87 l 87 174 l 174 174 l 174 434 l 87 434 l 87 521 l 174 521 l 174 608 l 260 608 l 260 521 l 347 521 l 347 434 l 260 434 l 260 174 l 347 174 l 347 87 l 260 87 l 260 0 l 174 0 z "},"£":{"ha":521,"x_min":0,"x_max":434,"o":"m 0 0 l 0 174 l 87 174 l 87 87 l 434 87 l 434 0 l 0 0 m 87 174 l 87 260 l 0 260 l 0 347 l 87 347 l 87 521 l 174 521 l 174 347 l 260 347 l 260 260 l 174 260 l 174 174 l 87 174 m 347 434 l 347 521 l 434 521 l 434 434 l 347 434 m 174 521 l 174 608 l 347 608 l 347 521 l 174 521 z "},"¤":{"ha":521,"x_min":0,"x_max":434,"o":"m 0 87 l 0 174 l 87 174 l 87 87 l 0 87 m 347 87 l 347 174 l 434 174 l 434 87 l 347 87 m 260 260 l 260 347 l 174 347 l 174 260 l 260 260 m 87 174 l 87 434 l 347 434 l 347 174 l 87 174 m 0 434 l 0 521 l 87 521 l 87 434 l 0 434 m 347 434 l 347 521 l 434 521 l 434 434 l 347 434 z "},"¥":{"ha":521,"x_min":0,"x_max":434,"o":"m 174 0 l 174 87 l 87 87 l 87 174 l 174 174 l 174 260 l 87 260 l 87 347 l 347 347 l 347 260 l 260 260 l 260 174 l 347 174 l 347 87 l 260 87 l 260 0 l 174 0 m 0 347 l 0 608 l 87 608 l 87 347 l 0 347 m 347 347 l 347 608 l 434 608 l 434 347 l 347 347 z "},"¦":{"ha":174,"x_min":0,"x_max":87,"o":"m 0 0 l 0 260 l 87 260 l 87 0 l 0 0 m 0 347 l 0 608 l 87 608 l 87 347 l 0 347 z "},"§":{"ha":521,"x_min":0,"x_max":434,"o":"m 87 0 l 87 87 l 347 87 l 347 0 l 87 0 m 0 87 l 0 174 l 87 174 l 87 87 l 0 87 m 174 174 l 174 260 l 260 260 l 260 174 l 174 174 m 347 87 l 347 260 l 434 260 l 434 87 l 347 87 m 87 260 l 87 347 l 174 347 l 174 260 l 87 260 m 260 260 l 260 347 l 347 347 l 347 260 l 260 260 m 174 347 l 174 434 l 260 434 l 260 347 l 174 347 m 0 347 l 0 521 l 87 521 l 87 347 l 0 347 m 347 434 l 347 521 l 434 521 l 434 434 l 347 434 m 87 521 l 87 608 l 347 608 l 347 521 l 87 521 z "},"¨":{"ha":521,"x_min":0,"x_max":434,"o":"m 0 521 l 0 608 l 87 608 l 87 521 l 0 521 m 347 521 l 347 608 l 434 608 l 434 521 l 347 521 z "},"©":{"ha":608,"x_min":0,"x_max":521,"o":"m 87 0 l 87 87 l 434 87 l 434 0 l 87 0 m 174 174 l 174 434 l 347 434 l 347 347 l 260 347 l 260 260 l 347 260 l 347 174 l 174 174 m 0 87 l 0 521 l 87 521 l 87 87 l 0 87 m 434 87 l 434 521 l 521 521 l 521 87 l 434 87 m 87 521 l 87 608 l 434 608 l 434 521 l 87 521 z "},"ª":{"ha":347,"x_min":0,"x_max":260,"o":"m 0 260 l 0 521 l 87 521 l 87 434 l 174 434 l 174 521 l 260 521 l 260 260 l 174 260 l 174 347 l 87 347 l 87 260 l 0 260 m 87 521 l 87 608 l 174 608 l 174 521 l 87 521 z "},"«":{"ha":608,"x_min":0,"x_max":521,"o":"m 174 87 l 174 174 l 260 174 l 260 87 l 174 87 m 434 87 l 434 174 l 521 174 l 521 87 l 434 87 m 87 174 l 87 260 l 174 260 l 174 174 l 87 174 m 347 174 l 347 260 l 434 260 l 434 174 l 347 174 m 0 260 l 0 347 l 87 347 l 87 260 l 0 260 m 260 260 l 260 347 l 347 347 l 347 260 l 260 260 m 87 347 l 87 434 l 174 434 l 174 347 l 87 347 m 347 347 l 347 434 l 434 434 l 434 347 l 347 347 m 174 434 l 174 521 l 260 521 l 260 434 l 174 434 m 434 434 l 434 521 l 521 521 l 521 434 l 434 434 z "},"¬":{"ha":521,"x_min":0,"x_max":434,"o":"m 347 174 l 347 260 l 0 260 l 0 347 l 434 347 l 434 174 l 347 174 z "},"­":{"ha":347,"x_min":0,"x_max":260,"o":"m 0 260 l 0 347 l 260 347 l 260 260 l 0 260 z "},"®":{"ha":608,"x_min":0,"x_max":521,"o":"m 87 0 l 87 87 l 434 87 l 434 0 l 87 0 m 174 174 l 174 434 l 347 434 l 347 347 l 260 347 l 260 174 l 174 174 m 0 87 l 0 521 l 87 521 l 87 87 l 0 87 m 434 87 l 434 521 l 521 521 l 521 87 l 434 87 m 87 521 l 87 608 l 434 608 l 434 521 l 87 521 z "},"¯":{"ha":521,"x_min":0,"x_max":434,"o":"m 0 521 l 0 608 l 434 608 l 434 521 l 0 521 z "},"°":{"ha":347,"x_min":0,"x_max":260,"o":"m 174 434 l 174 521 l 87 521 l 87 434 l 174 434 m 0 347 l 0 608 l 260 608 l 260 347 l 0 347 z "},"±":{"ha":521,"x_min":0,"x_max":434,"o":"m 0 87 l 0 174 l 434 174 l 434 87 l 0 87 m 174 260 l 174 347 l 87 347 l 87 434 l 174 434 l 174 521 l 260 521 l 260 434 l 347 434 l 347 347 l 260 347 l 260 260 l 174 260 z "},"²":{"ha":347,"x_min":0,"x_max":260,"o":"m 0 174 l 0 434 l 174 434 l 174 521 l 0 521 l 0 608 l 260 608 l 260 347 l 87 347 l 87 260 l 260 260 l 260 174 l 0 174 z "},"³":{"ha":347,"x_min":0,"x_max":260,"o":"m 0 174 l 0 260 l 174 260 l 174 347 l 0 347 l 0 434 l 174 434 l 174 521 l 0 521 l 0 608 l 260 608 l 260 174 l 0 174 z "},"´":{"ha":260,"x_min":0,"x_max":174,"o":"m 0 521 l 0 608 l 174 608 l 174 521 l 0 521 z "},"µ":{"ha":521,"x_min":0,"x_max":434,"o":"m 0 -174 l 0 347 l 87 347 l 87 87 l 347 87 l 347 0 l 87 0 l 87 -174 l 0 -174 m 347 87 l 347 347 l 434 347 l 434 87 l 347 87 z "},"¶":{"ha":521,"x_min":0,"x_max":434,"o":"m 174 0 l 174 260 l 87 260 l 87 347 l 0 347 l 0 521 l 87 521 l 87 608 l 434 608 l 434 0 l 347 0 l 347 521 l 260 521 l 260 0 l 174 0 z "},"·":{"ha":174,"x_min":0,"x_max":87,"o":"m 0 260 l 0 347 l 87 347 l 87 260 l 0 260 z "},"¸":{"ha":260,"x_min":0,"x_max":174,"o":"m 0 -174 l 0 -87 l 87 -87 l 87 0 l 174 0 l 174 -174 l 0 -174 m 0 0 l 0 87 l 87 87 l 87 0 l 0 0 z "},"¹":{"ha":260,"x_min":0,"x_max":174,"o":"m 87 347 l 87 521 l 0 521 l 0 608 l 174 608 l 174 347 l 87 347 z "},"º":{"ha":347,"x_min":0,"x_max":260,"o":"m 174 434 l 174 521 l 87 521 l 87 434 l 174 434 m 0 347 l 0 608 l 260 608 l 260 347 l 0 347 z "},"»":{"ha":608,"x_min":0,"x_max":521,"o":"m 0 87 l 0 174 l 87 174 l 87 87 l 0 87 m 260 87 l 260 174 l 347 174 l 347 87 l 260 87 m 87 174 l 87 260 l 174 260 l 174 174 l 87 174 m 347 174 l 347 260 l 434 260 l 434 174 l 347 174 m 174 260 l 174 347 l 260 347 l 260 260 l 174 260 m 434 260 l 434 347 l 521 347 l 521 260 l 434 260 m 87 347 l 87 434 l 174 434 l 174 347 l 87 347 m 347 347 l 347 434 l 434 434 l 434 347 l 347 347 m 0 434 l 0 521 l 87 521 l 87 434 l 0 434 m 260 434 l 260 521 l 347 521 l 347 434 l 260 434 z "},"¼":{"ha":608,"x_min":0,"x_max":521,"o":"m 0 0 l 0 87 l 87 87 l 87 0 l 0 0 m 87 87 l 87 174 l 174 174 l 174 87 l 87 87 m 434 0 l 434 87 l 260 87 l 260 347 l 347 347 l 347 174 l 434 174 l 434 347 l 521 347 l 521 0 l 434 0 m 347 434 l 347 521 l 434 521 l 434 434 l 347 434 m 0 260 l 0 608 l 87 608 l 87 260 l 0 260 m 434 521 l 434 608 l 521 608 l 521 521 l 434 521 z "},"½":{"ha":608,"x_min":0,"x_max":521,"o":"m 0 0 l 0 87 l 87 87 l 87 0 l 0 0 m 87 87 l 87 174 l 174 174 l 174 87 l 87 87 m 260 0 l 260 174 l 347 174 l 347 87 l 521 87 l 521 0 l 260 0 m 434 174 l 434 260 l 260 260 l 260 347 l 521 347 l 521 174 l 434 174 m 347 434 l 347 521 l 434 521 l 434 434 l 347 434 m 0 260 l 0 608 l 87 608 l 87 260 l 0 260 m 434 521 l 434 608 l 521 608 l 521 521 l 434 521 z "},"¾":{"ha":608,"x_min":0,"x_max":521,"o":"m 0 0 l 0 87 l 87 87 l 87 0 l 0 0 m 434 0 l 434 87 l 260 87 l 260 347 l 347 347 l 347 174 l 434 174 l 434 347 l 521 347 l 521 0 l 434 0 m 347 434 l 347 521 l 434 521 l 434 434 l 347 434 m 0 174 l 0 260 l 87 260 l 87 347 l 0 347 l 0 434 l 87 434 l 87 521 l 0 521 l 0 608 l 174 608 l 174 174 l 0 174 m 434 521 l 434 608 l 521 608 l 521 521 l 434 521 z "},"¿":{"ha":521,"x_min":0,"x_max":434,"o":"m 87 0 l 87 87 l 347 87 l 347 0 l 87 0 m 347 87 l 347 174 l 434 174 l 434 87 l 347 87 m 0 87 l 0 260 l 87 260 l 87 87 l 0 87 m 87 260 l 87 347 l 174 347 l 174 260 l 87 260 m 174 347 l 174 434 l 260 434 l 260 347 l 174 347 m 174 521 l 174 608 l 260 608 l 260 521 l 174 521 z "},"À":{"ha":521,"x_min":0,"x_max":434,"o":"m 0 0 l 0 521 l 87 521 l 87 347 l 347 347 l 347 521 l 434 521 l 434 0 l 347 0 l 347 260 l 87 260 l 87 0 l 0 0 m 87 521 l 87 608 l 347 608 l 347 521 l 87 521 m 0 694 l 0 781 l 174 781 l 174 694 l 0 694 z "},"Á":{"ha":521,"x_min":0,"x_max":434,"o":"m 0 0 l 0 521 l 87 521 l 87 347 l 347 347 l 347 521 l 434 521 l 434 0 l 347 0 l 347 260 l 87 260 l 87 0 l 0 0 m 87 521 l 87 608 l 347 608 l 347 521 l 87 521 m 260 694 l 260 781 l 434 781 l 434 694 l 260 694 z "},"Â":{"ha":521,"x_min":0,"x_max":434,"o":"m 0 0 l 0 521 l 87 521 l 87 347 l 347 347 l 347 521 l 434 521 l 434 0 l 347 0 l 347 260 l 87 260 l 87 0 l 0 0 m 87 521 l 87 608 l 347 608 l 347 521 l 87 521 m 0 694 l 0 781 l 87 781 l 87 694 l 0 694 m 347 694 l 347 781 l 434 781 l 434 694 l 347 694 m 87 781 l 87 868 l 347 868 l 347 781 l 87 781 z "},"Ã":{"ha":521,"x_min":0,"x_max":434,"o":"m 0 0 l 0 521 l 87 521 l 87 347 l 347 347 l 347 521 l 434 521 l 434 0 l 347 0 l 347 260 l 87 260 l 87 0 l 0 0 m 87 521 l 87 608 l 347 608 l 347 521 l 87 521 m 0 694 l 0 781 l 87 781 l 87 694 l 0 694 m 260 694 l 260 781 l 347 781 l 347 694 l 260 694 m 87 781 l 87 868 l 260 868 l 260 781 l 87 781 m 347 781 l 347 868 l 434 868 l 434 781 l 347 781 z "},"Ä":{"ha":521,"x_min":0,"x_max":434,"o":"m 0 0 l 0 521 l 87 521 l 87 347 l 347 347 l 347 521 l 434 521 l 434 0 l 347 0 l 347 260 l 87 260 l 87 0 l 0 0 m 87 521 l 87 608 l 347 608 l 347 521 l 87 521 m 0 694 l 0 781 l 87 781 l 87 694 l 0 694 m 347 694 l 347 781 l 434 781 l 434 694 l 347 694 z "},"Å":{"ha":521,"x_min":0,"x_max":434,"o":"m 0 0 l 0 521 l 87 521 l 87 347 l 347 347 l 347 521 l 434 521 l 434 0 l 347 0 l 347 260 l 87 260 l 87 0 l 0 0 m 87 521 l 87 608 l 347 608 l 347 521 l 87 521 m 174 694 l 174 781 l 260 781 l 260 694 l 174 694 z "},"Æ":{"ha":781,"x_min":0,"x_max":694,"o":"m 0 0 l 0 521 l 87 521 l 87 347 l 347 347 l 347 521 l 87 521 l 87 608 l 694 608 l 694 521 l 434 521 l 434 347 l 694 347 l 694 260 l 434 260 l 434 87 l 694 87 l 694 0 l 347 0 l 347 260 l 87 260 l 87 0 l 0 0 z "},"Ç":{"ha":521,"x_min":0,"x_max":434,"o":"m 174 -174 l 174 -87 l 260 -87 l 260 -174 l 174 -174 m 260 -87 l 260 0 l 87 0 l 87 87 l 347 87 l 347 -87 l 260 -87 m 347 87 l 347 174 l 434 174 l 434 87 l 347 87 m 0 87 l 0 521 l 87 521 l 87 87 l 0 87 m 347 434 l 347 521 l 434 521 l 434 434 l 347 434 m 87 521 l 87 608 l 347 608 l 347 521 l 87 521 z "},"È":{"ha":521,"x_min":0,"x_max":434,"o":"m 87 0 l 87 87 l 434 87 l 434 0 l 87 0 m 0 87 l 0 521 l 87 521 l 87 347 l 434 347 l 434 260 l 87 260 l 87 87 l 0 87 m 87 521 l 87 608 l 434 608 l 434 521 l 87 521 m 0 694 l 0 781 l 174 781 l 174 694 l 0 694 z "},"É":{"ha":521,"x_min":0,"x_max":434,"o":"m 87 0 l 87 87 l 434 87 l 434 0 l 87 0 m 0 87 l 0 521 l 87 521 l 87 347 l 434 347 l 434 260 l 87 260 l 87 87 l 0 87 m 87 521 l 87 608 l 434 608 l 434 521 l 87 521 m 260 694 l 260 781 l 434 781 l 434 694 l 260 694 z "},"Ê":{"ha":521,"x_min":0,"x_max":434,"o":"m 87 0 l 87 87 l 434 87 l 434 0 l 87 0 m 0 87 l 0 521 l 87 521 l 87 347 l 434 347 l 434 260 l 87 260 l 87 87 l 0 87 m 87 521 l 87 608 l 434 608 l 434 521 l 87 521 m 0 694 l 0 781 l 87 781 l 87 694 l 0 694 m 347 694 l 347 781 l 434 781 l 434 694 l 347 694 m 87 781 l 87 868 l 347 868 l 347 781 l 87 781 z "},"Ë":{"ha":521,"x_min":0,"x_max":434,"o":"m 87 0 l 87 87 l 434 87 l 434 0 l 87 0 m 0 87 l 0 521 l 87 521 l 87 347 l 434 347 l 434 260 l 87 260 l 87 87 l 0 87 m 87 521 l 87 608 l 434 608 l 434 521 l 87 521 m 0 694 l 0 781 l 87 781 l 87 694 l 0 694 m 347 694 l 347 781 l 434 781 l 434 694 l 347 694 z "},"Ì":{"ha":347,"x_min":0,"x_max":260,"o":"m 0 0 l 0 87 l 87 87 l 87 521 l 0 521 l 0 608 l 260 608 l 260 521 l 174 521 l 174 87 l 260 87 l 260 0 l 0 0 m 0 694 l 0 781 l 174 781 l 174 694 l 0 694 z "},"Í":{"ha":347,"x_min":0,"x_max":260,"o":"m 0 0 l 0 87 l 87 87 l 87 521 l 0 521 l 0 608 l 260 608 l 260 521 l 174 521 l 174 87 l 260 87 l 260 0 l 0 0 m 87 694 l 87 781 l 260 781 l 260 694 l 87 694 z "},"Î":{"ha":347,"x_min":0,"x_max":260,"o":"m 0 0 l 0 87 l 87 87 l 87 521 l 0 521 l 0 608 l 260 608 l 260 521 l 174 521 l 174 87 l 260 87 l 260 0 l 0 0 m 0 694 l 0 781 l 87 781 l 87 694 l 0 694 m 174 694 l 174 781 l 260 781 l 260 694 l 174 694 m 87 781 l 87 868 l 174 868 l 174 781 l 87 781 z "},"Ï":{"ha":347,"x_min":0,"x_max":260,"o":"m 0 0 l 0 87 l 87 87 l 87 521 l 0 521 l 0 608 l 260 608 l 260 521 l 174 521 l 174 87 l 260 87 l 260 0 l 0 0 m 0 694 l 0 781 l 87 781 l 87 694 l 0 694 m 174 694 l 174 781 l 260 781 l 260 694 l 174 694 z "},"Ð":{"ha":521,"x_min":-87,"x_max":434,"o":"m 347 87 l 347 521 l 434 521 l 434 87 l 347 87 m 0 0 l 0 260 l -87 260 l -87 347 l 0 347 l 0 608 l 347 608 l 347 521 l 87 521 l 87 347 l 260 347 l 260 260 l 87 260 l 87 87 l 347 87 l 347 0 l 0 0 z "},"Ñ":{"ha":521,"x_min":0,"x_max":434,"o":"m 0 0 l 0 521 l 87 521 l 87 0 l 0 0 m 347 0 l 347 521 l 434 521 l 434 0 l 347 0 m 87 521 l 87 608 l 347 608 l 347 521 l 87 521 m 0 694 l 0 781 l 87 781 l 87 694 l 0 694 m 260 694 l 260 781 l 347 781 l 347 694 l 260 694 m 87 781 l 87 868 l 260 868 l 260 781 l 87 781 m 347 781 l 347 868 l 434 868 l 434 781 l 347 781 z "},"Ò":{"ha":521,"x_min":0,"x_max":434,"o":"m 87 0 l 87 87 l 347 87 l 347 0 l 87 0 m 0 87 l 0 521 l 87 521 l 87 87 l 0 87 m 347 87 l 347 521 l 434 521 l 434 87 l 347 87 m 87 521 l 87 608 l 347 608 l 347 521 l 87 521 m 0 694 l 0 781 l 174 781 l 174 694 l 0 694 z "},"Ó":{"ha":521,"x_min":0,"x_max":434,"o":"m 87 0 l 87 87 l 347 87 l 347 0 l 87 0 m 0 87 l 0 521 l 87 521 l 87 87 l 0 87 m 347 87 l 347 521 l 434 521 l 434 87 l 347 87 m 87 521 l 87 608 l 347 608 l 347 521 l 87 521 m 260 694 l 260 781 l 434 781 l 434 694 l 260 694 z "},"Ô":{"ha":521,"x_min":0,"x_max":434,"o":"m 87 0 l 87 87 l 347 87 l 347 0 l 87 0 m 0 87 l 0 521 l 87 521 l 87 87 l 0 87 m 347 87 l 347 521 l 434 521 l 434 87 l 347 87 m 87 521 l 87 608 l 347 608 l 347 521 l 87 521 m 0 694 l 0 781 l 87 781 l 87 694 l 0 694 m 347 694 l 347 781 l 434 781 l 434 694 l 347 694 m 87 781 l 87 868 l 347 868 l 347 781 l 87 781 z "},"Õ":{"ha":521,"x_min":0,"x_max":434,"o":"m 87 0 l 87 87 l 347 87 l 347 0 l 87 0 m 0 87 l 0 521 l 87 521 l 87 87 l 0 87 m 347 87 l 347 521 l 434 521 l 434 87 l 347 87 m 87 521 l 87 608 l 347 608 l 347 521 l 87 521 m 0 694 l 0 781 l 87 781 l 87 694 l 0 694 m 260 694 l 260 781 l 347 781 l 347 694 l 260 694 m 87 781 l 87 868 l 260 868 l 260 781 l 87 781 m 347 781 l 347 868 l 434 868 l 434 781 l 347 781 z "},"Ö":{"ha":521,"x_min":0,"x_max":434,"o":"m 87 0 l 87 87 l 347 87 l 347 0 l 87 0 m 0 87 l 0 521 l 87 521 l 87 87 l 0 87 m 347 87 l 347 521 l 434 521 l 434 87 l 347 87 m 87 521 l 87 608 l 347 608 l 347 521 l 87 521 m 0 694 l 0 781 l 87 781 l 87 694 l 0 694 m 347 694 l 347 781 l 434 781 l 434 694 l 347 694 z "},"×":{"ha":521,"x_min":0,"x_max":434,"o":"m 0 87 l 0 174 l 87 174 l 87 87 l 0 87 m 347 87 l 347 174 l 434 174 l 434 87 l 347 87 m 87 174 l 87 260 l 174 260 l 174 174 l 87 174 m 260 174 l 260 260 l 347 260 l 347 174 l 260 174 m 174 260 l 174 347 l 260 347 l 260 260 l 174 260 m 87 347 l 87 434 l 174 434 l 174 347 l 87 347 m 260 347 l 260 434 l 347 434 l 347 347 l 260 347 m 0 434 l 0 521 l 87 521 l 87 434 l 0 434 m 347 434 l 347 521 l 434 521 l 434 434 l 347 434 z "},"Ø":{"ha":521,"x_min":0,"x_max":434,"o":"m 174 174 l 174 434 l 260 434 l 260 174 l 174 174 m 87 0 l 87 87 l 0 87 l 0 521 l 87 521 l 87 174 l 174 174 l 174 87 l 347 87 l 347 0 l 87 0 m 347 87 l 347 434 l 260 434 l 260 521 l 87 521 l 87 608 l 347 608 l 347 521 l 434 521 l 434 87 l 347 87 z "},"Ù":{"ha":521,"x_min":0,"x_max":434,"o":"m 87 0 l 87 87 l 347 87 l 347 0 l 87 0 m 0 87 l 0 608 l 87 608 l 87 87 l 0 87 m 347 87 l 347 608 l 434 608 l 434 87 l 347 87 m 0 694 l 0 781 l 174 781 l 174 694 l 0 694 z "},"Ú":{"ha":521,"x_min":0,"x_max":434,"o":"m 87 0 l 87 87 l 347 87 l 347 0 l 87 0 m 0 87 l 0 608 l 87 608 l 87 87 l 0 87 m 347 87 l 347 608 l 434 608 l 434 87 l 347 87 m 260 694 l 260 781 l 434 781 l 434 694 l 260 694 z "},"Û":{"ha":521,"x_min":0,"x_max":434,"o":"m 87 0 l 87 87 l 347 87 l 347 0 l 87 0 m 0 87 l 0 608 l 87 608 l 87 87 l 0 87 m 347 87 l 347 608 l 434 608 l 434 87 l 347 87 m 0 694 l 0 781 l 87 781 l 87 694 l 0 694 m 347 694 l 347 781 l 434 781 l 434 694 l 347 694 m 87 781 l 87 868 l 347 868 l 347 781 l 87 781 z "},"Ü":{"ha":521,"x_min":0,"x_max":434,"o":"m 87 0 l 87 87 l 347 87 l 347 0 l 87 0 m 0 87 l 0 608 l 87 608 l 87 87 l 0 87 m 347 87 l 347 608 l 434 608 l 434 87 l 347 87 m 0 694 l 0 781 l 87 781 l 87 694 l 0 694 m 347 694 l 347 781 l 434 781 l 434 694 l 347 694 z "},"Ý":{"ha":521,"x_min":0,"x_max":434,"o":"m 174 0 l 174 260 l 87 260 l 87 347 l 347 347 l 347 260 l 260 260 l 260 0 l 174 0 m 0 347 l 0 608 l 87 608 l 87 347 l 0 347 m 347 347 l 347 608 l 434 608 l 434 347 l 347 347 m 260 694 l 260 781 l 434 781 l 434 694 l 260 694 z "},"Þ":{"ha":434,"x_min":0,"x_max":347,"o":"m 260 260 l 260 347 l 347 347 l 347 260 l 260 260 m 0 0 l 0 608 l 87 608 l 87 434 l 260 434 l 260 347 l 87 347 l 87 260 l 260 260 l 260 174 l 87 174 l 87 0 l 0 0 z "},"ß":{"ha":521,"x_min":0,"x_max":434,"o":"m 174 0 l 174 87 l 347 87 l 347 0 l 174 0 m 347 87 l 347 260 l 434 260 l 434 87 l 347 87 m 260 260 l 260 347 l 347 347 l 347 260 l 260 260 m 347 347 l 347 521 l 434 521 l 434 347 l 347 347 m 0 0 l 0 608 l 347 608 l 347 521 l 87 521 l 87 0 l 0 0 z "},"à":{"ha":521,"x_min":0,"x_max":434,"o":"m 0 0 l 0 521 l 87 521 l 87 347 l 347 347 l 347 521 l 434 521 l 434 0 l 347 0 l 347 260 l 87 260 l 87 0 l 0 0 m 87 521 l 87 608 l 347 608 l 347 521 l 87 521 m 0 694 l 0 781 l 174 781 l 174 694 l 0 694 z "},"á":{"ha":521,"x_min":0,"x_max":434,"o":"m 0 0 l 0 521 l 87 521 l 87 347 l 347 347 l 347 521 l 434 521 l 434 0 l 347 0 l 347 260 l 87 260 l 87 0 l 0 0 m 87 521 l 87 608 l 347 608 l 347 521 l 87 521 m 260 694 l 260 781 l 434 781 l 434 694 l 260 694 z "},"â":{"ha":521,"x_min":0,"x_max":434,"o":"m 0 0 l 0 521 l 87 521 l 87 347 l 347 347 l 347 521 l 434 521 l 434 0 l 347 0 l 347 260 l 87 260 l 87 0 l 0 0 m 87 521 l 87 608 l 347 608 l 347 521 l 87 521 m 0 694 l 0 781 l 87 781 l 87 694 l 0 694 m 347 694 l 347 781 l 434 781 l 434 694 l 347 694 m 87 781 l 87 868 l 347 868 l 347 781 l 87 781 z "},"ã":{"ha":521,"x_min":0,"x_max":434,"o":"m 0 0 l 0 521 l 87 521 l 87 347 l 347 347 l 347 521 l 434 521 l 434 0 l 347 0 l 347 260 l 87 260 l 87 0 l 0 0 m 87 521 l 87 608 l 347 608 l 347 521 l 87 521 m 0 694 l 0 781 l 87 781 l 87 694 l 0 694 m 260 694 l 260 781 l 347 781 l 347 694 l 260 694 m 87 781 l 87 868 l 260 868 l 260 781 l 87 781 m 347 781 l 347 868 l 434 868 l 434 781 l 347 781 z "},"ä":{"ha":521,"x_min":0,"x_max":434,"o":"m 0 0 l 0 521 l 87 521 l 87 347 l 347 347 l 347 521 l 434 521 l 434 0 l 347 0 l 347 260 l 87 260 l 87 0 l 0 0 m 87 521 l 87 608 l 347 608 l 347 521 l 87 521 m 0 694 l 0 781 l 87 781 l 87 694 l 0 694 m 347 694 l 347 781 l 434 781 l 434 694 l 347 694 z "},"å":{"ha":521,"x_min":0,"x_max":434,"o":"m 0 0 l 0 521 l 87 521 l 87 347 l 347 347 l 347 521 l 434 521 l 434 0 l 347 0 l 347 260 l 87 260 l 87 0 l 0 0 m 87 521 l 87 608 l 347 608 l 347 521 l 87 521 m 174 694 l 174 781 l 260 781 l 260 694 l 174 694 z "},"æ":{"ha":781,"x_min":0,"x_max":694,"o":"m 0 0 l 0 521 l 87 521 l 87 347 l 347 347 l 347 521 l 87 521 l 87 608 l 694 608 l 694 521 l 434 521 l 434 347 l 694 347 l 694 260 l 434 260 l 434 87 l 694 87 l 694 0 l 347 0 l 347 260 l 87 260 l 87 0 l 0 0 z "},"ç":{"ha":521,"x_min":0,"x_max":434,"o":"m 174 -174 l 174 -87 l 260 -87 l 260 -174 l 174 -174 m 260 -87 l 260 0 l 87 0 l 87 87 l 347 87 l 347 -87 l 260 -87 m 347 87 l 347 174 l 434 174 l 434 87 l 347 87 m 0 87 l 0 521 l 87 521 l 87 87 l 0 87 m 347 434 l 347 521 l 434 521 l 434 434 l 347 434 m 87 521 l 87 608 l 347 608 l 347 521 l 87 521 z "},"è":{"ha":521,"x_min":0,"x_max":434,"o":"m 87 0 l 87 87 l 434 87 l 434 0 l 87 0 m 0 87 l 0 521 l 87 521 l 87 347 l 434 347 l 434 260 l 87 260 l 87 87 l 0 87 m 87 521 l 87 608 l 434 608 l 434 521 l 87 521 m 0 694 l 0 781 l 174 781 l 174 694 l 0 694 z "},"é":{"ha":521,"x_min":0,"x_max":434,"o":"m 87 0 l 87 87 l 434 87 l 434 0 l 87 0 m 0 87 l 0 521 l 87 521 l 87 347 l 434 347 l 434 260 l 87 260 l 87 87 l 0 87 m 87 521 l 87 608 l 434 608 l 434 521 l 87 521 m 260 694 l 260 781 l 434 781 l 434 694 l 260 694 z "},"ê":{"ha":521,"x_min":0,"x_max":434,"o":"m 87 0 l 87 87 l 434 87 l 434 0 l 87 0 m 0 87 l 0 521 l 87 521 l 87 347 l 434 347 l 434 260 l 87 260 l 87 87 l 0 87 m 87 521 l 87 608 l 434 608 l 434 521 l 87 521 m 0 694 l 0 781 l 87 781 l 87 694 l 0 694 m 347 694 l 347 781 l 434 781 l 434 694 l 347 694 m 87 781 l 87 868 l 347 868 l 347 781 l 87 781 z "},"ë":{"ha":521,"x_min":0,"x_max":434,"o":"m 87 0 l 87 87 l 434 87 l 434 0 l 87 0 m 0 87 l 0 521 l 87 521 l 87 347 l 434 347 l 434 260 l 87 260 l 87 87 l 0 87 m 87 521 l 87 608 l 434 608 l 434 521 l 87 521 m 0 694 l 0 781 l 87 781 l 87 694 l 0 694 m 347 694 l 347 781 l 434 781 l 434 694 l 347 694 z "},"ì":{"ha":347,"x_min":0,"x_max":260,"o":"m 0 0 l 0 87 l 87 87 l 87 521 l 0 521 l 0 608 l 260 608 l 260 521 l 174 521 l 174 87 l 260 87 l 260 0 l 0 0 m 0 694 l 0 781 l 174 781 l 174 694 l 0 694 z "},"í":{"ha":347,"x_min":0,"x_max":260,"o":"m 0 0 l 0 87 l 87 87 l 87 521 l 0 521 l 0 608 l 260 608 l 260 521 l 174 521 l 174 87 l 260 87 l 260 0 l 0 0 m 87 694 l 87 781 l 260 781 l 260 694 l 87 694 z "},"î":{"ha":347,"x_min":0,"x_max":260,"o":"m 0 0 l 0 87 l 87 87 l 87 521 l 0 521 l 0 608 l 260 608 l 260 521 l 174 521 l 174 87 l 260 87 l 260 0 l 0 0 m 0 694 l 0 781 l 87 781 l 87 694 l 0 694 m 174 694 l 174 781 l 260 781 l 260 694 l 174 694 m 87 781 l 87 868 l 174 868 l 174 781 l 87 781 z "},"ï":{"ha":347,"x_min":0,"x_max":260,"o":"m 0 0 l 0 87 l 87 87 l 87 521 l 0 521 l 0 608 l 260 608 l 260 521 l 174 521 l 174 87 l 260 87 l 260 0 l 0 0 m 0 694 l 0 781 l 87 781 l 87 694 l 0 694 m 174 694 l 174 781 l 260 781 l 260 694 l 174 694 z "},"ð":{"ha":521,"x_min":0,"x_max":434,"o":"m 87 0 l 87 87 l 347 87 l 347 0 l 87 0 m 0 87 l 0 260 l 87 260 l 87 87 l 0 87 m 347 87 l 347 260 l 87 260 l 87 347 l 347 347 l 347 521 l 434 521 l 434 87 l 347 87 m 174 434 l 174 521 l 87 521 l 87 608 l 174 608 l 174 694 l 260 694 l 260 608 l 347 608 l 347 521 l 260 521 l 260 434 l 174 434 z "},"ñ":{"ha":521,"x_min":0,"x_max":434,"o":"m 0 0 l 0 521 l 87 521 l 87 0 l 0 0 m 347 0 l 347 521 l 434 521 l 434 0 l 347 0 m 87 521 l 87 608 l 347 608 l 347 521 l 87 521 m 0 694 l 0 781 l 87 781 l 87 694 l 0 694 m 260 694 l 260 781 l 347 781 l 347 694 l 260 694 m 87 781 l 87 868 l 260 868 l 260 781 l 87 781 m 347 781 l 347 868 l 434 868 l 434 781 l 347 781 z "},"ò":{"ha":521,"x_min":0,"x_max":434,"o":"m 87 0 l 87 87 l 347 87 l 347 0 l 87 0 m 0 87 l 0 521 l 87 521 l 87 87 l 0 87 m 347 87 l 347 521 l 434 521 l 434 87 l 347 87 m 87 521 l 87 608 l 347 608 l 347 521 l 87 521 m 0 694 l 0 781 l 174 781 l 174 694 l 0 694 z "},"ó":{"ha":521,"x_min":0,"x_max":434,"o":"m 87 0 l 87 87 l 347 87 l 347 0 l 87 0 m 0 87 l 0 521 l 87 521 l 87 87 l 0 87 m 347 87 l 347 521 l 434 521 l 434 87 l 347 87 m 87 521 l 87 608 l 347 608 l 347 521 l 87 521 m 260 694 l 260 781 l 434 781 l 434 694 l 260 694 z "},"ô":{"ha":521,"x_min":0,"x_max":434,"o":"m 87 0 l 87 87 l 347 87 l 347 0 l 87 0 m 0 87 l 0 521 l 87 521 l 87 87 l 0 87 m 347 87 l 347 521 l 434 521 l 434 87 l 347 87 m 87 521 l 87 608 l 347 608 l 347 521 l 87 521 m 0 694 l 0 781 l 87 781 l 87 694 l 0 694 m 347 694 l 347 781 l 434 781 l 434 694 l 347 694 m 87 781 l 87 868 l 347 868 l 347 781 l 87 781 z "},"õ":{"ha":521,"x_min":0,"x_max":434,"o":"m 87 0 l 87 87 l 347 87 l 347 0 l 87 0 m 0 87 l 0 521 l 87 521 l 87 87 l 0 87 m 347 87 l 347 521 l 434 521 l 434 87 l 347 87 m 87 521 l 87 608 l 347 608 l 347 521 l 87 521 m 0 694 l 0 781 l 87 781 l 87 694 l 0 694 m 260 694 l 260 781 l 347 781 l 347 694 l 260 694 m 87 781 l 87 868 l 260 868 l 260 781 l 87 781 m 347 781 l 347 868 l 434 868 l 434 781 l 347 781 z "},"ö":{"ha":521,"x_min":0,"x_max":434,"o":"m 87 0 l 87 87 l 347 87 l 347 0 l 87 0 m 0 87 l 0 521 l 87 521 l 87 87 l 0 87 m 347 87 l 347 521 l 434 521 l 434 87 l 347 87 m 87 521 l 87 608 l 347 608 l 347 521 l 87 521 m 0 694 l 0 781 l 87 781 l 87 694 l 0 694 m 347 694 l 347 781 l 434 781 l 434 694 l 347 694 z "},"÷":{"ha":521,"x_min":0,"x_max":434,"o":"m 174 87 l 174 174 l 260 174 l 260 87 l 174 87 m 0 260 l 0 347 l 434 347 l 434 260 l 0 260 m 174 434 l 174 521 l 260 521 l 260 434 l 174 434 z "},"ø":{"ha":521,"x_min":0,"x_max":434,"o":"m 174 174 l 174 434 l 260 434 l 260 174 l 174 174 m 87 0 l 87 87 l 0 87 l 0 521 l 87 521 l 87 174 l 174 174 l 174 87 l 347 87 l 347 0 l 87 0 m 347 87 l 347 434 l 260 434 l 260 521 l 87 521 l 87 608 l 347 608 l 347 521 l 434 521 l 434 87 l 347 87 z "},"ù":{"ha":521,"x_min":0,"x_max":434,"o":"m 87 0 l 87 87 l 347 87 l 347 0 l 87 0 m 0 87 l 0 608 l 87 608 l 87 87 l 0 87 m 347 87 l 347 608 l 434 608 l 434 87 l 347 87 m 0 694 l 0 781 l 174 781 l 174 694 l 0 694 z "},"ú":{"ha":521,"x_min":0,"x_max":434,"o":"m 87 0 l 87 87 l 347 87 l 347 0 l 87 0 m 0 87 l 0 608 l 87 608 l 87 87 l 0 87 m 347 87 l 347 608 l 434 608 l 434 87 l 347 87 m 260 694 l 260 781 l 434 781 l 434 694 l 260 694 z "},"û":{"ha":521,"x_min":0,"x_max":434,"o":"m 87 0 l 87 87 l 347 87 l 347 0 l 87 0 m 0 87 l 0 608 l 87 608 l 87 87 l 0 87 m 347 87 l 347 608 l 434 608 l 434 87 l 347 87 m 0 694 l 0 781 l 87 781 l 87 694 l 0 694 m 347 694 l 347 781 l 434 781 l 434 694 l 347 694 m 87 781 l 87 868 l 347 868 l 347 781 l 87 781 z "},"ü":{"ha":521,"x_min":0,"x_max":434,"o":"m 87 0 l 87 87 l 347 87 l 347 0 l 87 0 m 0 87 l 0 608 l 87 608 l 87 87 l 0 87 m 347 87 l 347 608 l 434 608 l 434 87 l 347 87 m 0 694 l 0 781 l 87 781 l 87 694 l 0 694 m 347 694 l 347 781 l 434 781 l 434 694 l 347 694 z "},"ý":{"ha":521,"x_min":0,"x_max":434,"o":"m 174 0 l 174 260 l 87 260 l 87 347 l 347 347 l 347 260 l 260 260 l 260 0 l 174 0 m 0 347 l 0 608 l 87 608 l 87 347 l 0 347 m 347 347 l 347 608 l 434 608 l 434 347 l 347 347 m 260 694 l 260 781 l 434 781 l 434 694 l 260 694 z "},"þ":{"ha":434,"x_min":0,"x_max":347,"o":"m 260 260 l 260 347 l 347 347 l 347 260 l 260 260 m 0 0 l 0 608 l 87 608 l 87 434 l 260 434 l 260 347 l 87 347 l 87 260 l 260 260 l 260 174 l 87 174 l 87 0 l 0 0 z "},"ÿ":{"ha":521,"x_min":0,"x_max":434,"o":"m 174 0 l 174 260 l 87 260 l 87 347 l 347 347 l 347 260 l 260 260 l 260 0 l 174 0 m 0 347 l 0 608 l 87 608 l 87 347 l 0 347 m 347 347 l 347 608 l 434 608 l 434 347 l 347 347 m 0 694 l 0 781 l 87 781 l 87 694 l 0 694 m 347 694 l 347 781 l 434 781 l 434 694 l 347 694 z "},"Ÿ":{"ha":521,"x_min":0,"x_max":434,"o":"m 174 0 l 174 260 l 87 260 l 87 347 l 347 347 l 347 260 l 260 260 l 260 0 l 174 0 m 0 347 l 0 608 l 87 608 l 87 347 l 0 347 m 347 347 l 347 608 l 434 608 l 434 347 l 347 347 m 0 694 l 0 781 l 87 781 l 87 694 l 0 694 m 347 694 l 347 781 l 434 781 l 434 694 l 347 694 z "},"ẞ":{"ha":521,"x_min":0,"x_max":434,"o":"m 174 0 l 174 87 l 347 87 l 347 0 l 174 0 m 347 87 l 347 260 l 434 260 l 434 87 l 347 87 m 174 260 l 174 347 l 347 347 l 347 260 l 174 260 m 347 347 l 347 521 l 434 521 l 434 347 l 347 347 m 0 0 l 0 608 l 347 608 l 347 521 l 87 521 l 87 0 l 0 0 z "},"—":{"ha":608,"x_min":0,"x_max":521,"o":"m 0 260 l 0 347 l 521 347 l 521 260 l 0 260 z "},"‘":{"ha":174,"x_min":0,"x_max":87,"o":"m 0 434 l 0 608 l 87 608 l 87 434 l 0 434 z "},"’":{"ha":174,"x_min":0,"x_max":87,"o":"m 0 434 l 0 608 l 87 608 l 87 434 l 0 434 z "},"‚":{"ha":174,"x_min":0,"x_max":87,"o":"m 0 -87 l 0 87 l 87 87 l 87 -87 l 0 -87 z "},"‛":{"ha":174,"x_min":0,"x_max":87,"o":"m 0 434 l 0 608 l 87 608 l 87 434 l 0 434 z "},"“":{"ha":347,"x_min":0,"x_max":260,"o":"m 0 434 l 0 608 l 87 608 l 87 434 l 0 434 m 174 434 l 174 608 l 260 608 l 260 434 l 174 434 z "},"”":{"ha":347,"x_min":0,"x_max":260,"o":"m 0 434 l 0 608 l 87 608 l 87 434 l 0 434 m 174 434 l 174 608 l 260 608 l 260 434 l 174 434 z "},"„":{"ha":347,"x_min":0,"x_max":260,"o":"m 0 -87 l 0 87 l 87 87 l 87 -87 l 0 -87 m 174 -87 l 174 87 l 260 87 l 260 -87 l 174 -87 z "},"†":{"ha":521,"x_min":0,"x_max":434,"o":"m 174 -174 l 174 347 l 0 347 l 0 434 l 174 434 l 174 608 l 260 608 l 260 434 l 434 434 l 434 347 l 260 347 l 260 -174 l 174 -174 z "},"•":{"ha":347,"x_min":0,"x_max":260,"o":"m 87 174 l 87 260 l 0 260 l 0 347 l 87 347 l 87 434 l 174 434 l 174 347 l 260 347 l 260 260 l 174 260 l 174 174 l 87 174 z "},"…":{"ha":521,"x_min":0,"x_max":434,"o":"m 0 0 l 0 87 l 87 87 l 87 0 l 0 0 m 174 0 l 174 87 l 260 87 l 260 0 l 174 0 m 347 0 l 347 87 l 434 87 l 434 0 l 347 0 z "},"‹":{"ha":347,"x_min":0,"x_max":260,"o":"m 174 87 l 174 174 l 260 174 l 260 87 l 174 87 m 87 174 l 87 260 l 174 260 l 174 174 l 87 174 m 0 260 l 0 347 l 87 347 l 87 260 l 0 260 m 87 347 l 87 434 l 174 434 l 174 347 l 87 347 m 174 434 l 174 521 l 260 521 l 260 434 l 174 434 z "},"›":{"ha":347,"x_min":0,"x_max":260,"o":"m 0 87 l 0 174 l 87 174 l 87 87 l 0 87 m 87 174 l 87 260 l 174 260 l 174 174 l 87 174 m 174 260 l 174 347 l 260 347 l 260 260 l 174 260 m 87 347 l 87 434 l 174 434 l 174 347 l 87 347 m 0 434 l 0 521 l 87 521 l 87 434 l 0 434 z "},"€":{"ha":521,"x_min":-87,"x_max":434,"o":"m 87 87 l 87 174 l 347 174 l 347 87 l 87 87 m 347 174 l 347 260 l 434 260 l 434 174 l 347 174 m 0 174 l 0 260 l -87 260 l -87 347 l 0 347 l 0 434 l 87 434 l 87 347 l 260 347 l 260 260 l 87 260 l 87 174 l 0 174 m 347 347 l 347 434 l 434 434 l 434 347 l 347 347 m 87 434 l 87 521 l 347 521 l 347 434 l 87 434 z "},"™":{"ha":781,"x_min":0,"x_max":694,"o":"m 434 434 l 434 521 l 521 521 l 521 434 l 434 434 m 87 347 l 87 521 l 0 521 l 0 608 l 434 608 l 434 521 l 347 521 l 347 347 l 260 347 l 260 521 l 174 521 l 174 347 l 87 347 m 608 347 l 608 521 l 521 521 l 521 608 l 694 608 l 694 347 l 608 347 z "},"ﬁ":{"ha":608,"x_min":0,"x_max":521,"o":"m 0 0 l 0 521 l 87 521 l 87 347 l 521 347 l 521 0 l 434 0 l 434 260 l 87 260 l 87 0 l 0 0 m 434 434 l 434 521 l 521 521 l 521 434 l 434 434 m 87 521 l 87 608 l 347 608 l 347 521 l 87 521 z "},"ﬂ":{"ha":608,"x_min":0,"x_max":521,"o":"m 0 0 l 0 521 l 87 521 l 87 347 l 434 347 l 434 521 l 521 521 l 521 0 l 434 0 l 434 260 l 87 260 l 87 0 l 0 0 m 87 521 l 87 608 l 347 608 l 347 521 l 87 521 z "}}}
